<?xml version="1.0" encoding="UTF-8"?>
<svg id="_Слой_1" data-name="Слой 1" xmlns="http://www.w3.org/2000/svg" viewBox="0 0 383.14 79.18">
  <defs>
    <style>
      .cls-1 {
        fill: #eb2028;
      }

      .cls-2 {
        fill: #231f20;
      }
    </style>
  </defs>
  <path d="m39.42,24.9h3.41v18.22c-2.13,2.04-4.72,3.59-7.75,4.66-3.04,1.07-6.25,1.6-9.63,1.6-4.82,0-9.17-1.07-13.04-3.2-3.87-2.13-6.91-5.08-9.11-8.83-2.2-3.76-3.3-7.97-3.3-12.66s1.1-8.9,3.3-12.65c2.2-3.76,5.24-6.7,9.11-8.83S20.65,0,25.52,0c3.57,0,6.85.57,9.84,1.71s5.55,2.79,7.68,4.97l-2.23,2.37c-2.04-2.04-4.32-3.51-6.85-4.42s-5.32-1.36-8.38-1.36c-4.17,0-7.94.93-11.3,2.78-3.36,1.86-5.99,4.42-7.89,7.68-1.9,3.27-2.85,6.92-2.85,10.95s.96,7.61,2.89,10.88c1.92,3.27,4.56,5.84,7.89,7.72,3.34,1.88,7.09,2.82,11.26,2.82,5.56,0,10.18-1.48,13.84-4.45v-16.76Z"/>
  <path d="m92.2,49.03l-11.61-16.27c-1.72.24-3.29.35-4.73.35h-13.91v15.93h-3.55V.36h17.46c6.12,0,10.92,1.45,14.39,4.35,3.48,2.9,5.22,6.92,5.22,12.07,0,3.85-.99,7.08-2.96,9.7s-4.79,4.46-8.45,5.53l12.17,17.04h-4.03v-.02Zm-16.34-19.06c5.19,0,9.16-1.14,11.89-3.44,2.74-2.3,4.1-5.55,4.1-9.77s-1.37-7.48-4.1-9.77c-2.74-2.29-6.7-3.44-11.89-3.44h-13.91v26.42h13.91Z"/>
  <path d="m171.67.97h19.26c5.05,0,9.54,1.04,13.46,3.13,3.92,2.08,6.96,4.97,9.14,8.66,2.18,3.69,3.27,7.87,3.27,12.55s-1.09,8.87-3.27,12.55c-2.18,3.68-5.23,6.57-9.14,8.66-3.92,2.08-8.4,3.13-13.46,3.13h-19.26V.97Zm18.99,45.48c4.49,0,8.46-.89,11.89-2.68,3.43-1.78,6.07-4.27,7.93-7.47,1.85-3.2,2.78-6.86,2.78-10.99s-.93-7.79-2.78-10.98c-1.86-3.2-4.5-5.69-7.93-7.48-3.43-1.78-7.4-2.68-11.89-2.68h-15.44v42.28h15.44Z"/>
  <path d="m229.11.97h3.55v48.68h-3.55V.97Z"/>
  <path d="m283.22,46.45v3.2h-33.59V.97h32.55v3.2h-29v19.19h25.94v3.13h-25.94v19.96h30.04Z"/>
  <path d="m335.79.97v48.68h-2.92l-33.17-42.28v42.28h-3.55V.97h2.99l33.1,42.28V.97h3.55Z"/>
  <path d="m362.07,4.17h-17.52V.97h38.59v3.2h-17.52v45.48h-3.55V4.17h0Z"/>
  <path class="cls-1" d="m136.75,45v4.24h25.19l-14.27-24.62L133.4,0l-11.14,19.21h5.27l5.7-9.83,10.33,17.81,4.06,7c.86,1.49,1.72,2.97,2.59,4.46l3.68,6.35h-17.14Z"/>
  <polygon class="cls-1" points="118.58 25.56 118.53 25.56 118.53 25.64 104.85 49.23 129.7 49.23 129.7 45 112.58 45 121.26 30.02 130.12 30.02 130.12 25.56 123.84 25.56 118.58 25.56"/>
  <rect x=".07" y="55.73" width="382.72" height="1.26"/>
  <g>
    <path class="cls-2" d="m.21,76.53v-12.22h9.28v12.22h-1.73v-10.93H1.95v10.93H.21Z"/>
    <path class="cls-2" d="m12.63,76.53v-12.22h3.33c.96,0,1.7.08,2.22.24.52.16.95.43,1.28.83.43.52.65,1.24.65,2.14,0,1.3-.44,2.32-1.32,3.06-.88.74-2.1,1.11-3.67,1.11h-.77v4.86h-1.72v-.02Zm1.72-6.17h.7c1.03,0,1.83-.24,2.39-.71s.84-1.15.84-2.01c0-.73-.22-1.25-.66-1.56s-1.18-.47-2.2-.47h-1.07s0,4.75,0,4.75Z"/>
    <path class="cls-2" d="m26.98,76.83c-1.73,0-3.12-.58-4.16-1.75-1.04-1.16-1.56-2.72-1.56-4.67s.52-3.51,1.56-4.67,2.42-1.75,4.16-1.75,3.12.58,4.16,1.75,1.56,2.72,1.56,4.67-.52,3.51-1.56,4.67-2.43,1.75-4.16,1.75Zm0-1.29c1.22,0,2.17-.45,2.85-1.36.68-.91,1.02-2.16,1.02-3.78s-.34-2.85-1.02-3.75-1.63-1.35-2.85-1.35-2.17.45-2.85,1.35-1.02,2.15-1.02,3.75.34,2.87,1.02,3.78,1.63,1.36,2.85,1.36Z"/>
    <path class="cls-2" d="m34.15,79.18v-4.18h.97c.91-1.45,1.54-2.89,1.9-4.31.36-1.42.54-3.17.54-5.26v-1.12h6.67v10.69h1.68v4.18h-1.68v-2.65h-8.4v2.65h-1.68Zm8.35-4.18v-9.42h-3.2v.2c0,3.61-.73,6.68-2.19,9.22h5.39Z"/>
    <path class="cls-2" d="m46.57,76.53l4.85-12.22h1.72l4.77,12.22h-1.87l-1.33-3.38h-5.18l-1.35,3.38h-1.61Zm3.46-4.68h4.18l-2.09-5.28-2.09,5.28Z"/>
    <path class="cls-2" d="m65.83,70.77v5.76h-1.64v-5.76h-.71c-.51.25-.9.64-1.19,1.16-.39.72-.88,1.84-1.47,3.37-.23.61-.39,1.02-.48,1.22h-1.78l.18-.41c.33-.74.63-1.45.9-2.11l.39-.92c.41-.99.78-1.69,1.12-2.1s.8-.7,1.38-.88c-.3-.18-.55-.4-.74-.66-.19-.27-.47-.77-.83-1.52l-.31-.64c-.35-.71-.62-1.17-.82-1.38-.2-.21-.46-.31-.78-.31v-1.28h.17c.57,0,1.04.17,1.43.51.38.35.81,1,1.28,1.94l.26.53.33.67c.33.66.6,1.09.8,1.29s.5.31.88.33v-5.27h1.64v5.27c.39-.04.69-.17.91-.38s.48-.62.78-1.24c.15-.3.26-.52.33-.67l.26-.53c.47-.94.89-1.59,1.28-1.94.38-.35.86-.52,1.42-.52h.17v1.28c-.32,0-.59.11-.79.31-.2.21-.47.67-.82,1.38l-.31.64c-.36.75-.64,1.26-.83,1.52-.19.27-.44.49-.74.66.58.18,1.04.48,1.38.88.34.41.72,1.11,1.12,2.1l.38.92c.28.66.58,1.36.91,2.11l.18.41h-1.77c-.09-.21-.26-.62-.49-1.22-.57-1.5-1.06-2.62-1.47-3.37-.19-.35-.37-.6-.53-.74s-.41-.28-.77-.43h-.61v.02Z"/>
    <path class="cls-2" d="m72.06,76.53l4.85-12.22h1.72l4.77,12.22h-1.87l-1.33-3.38h-5.18l-1.35,3.38h-1.61Zm3.45-4.68h4.18l-2.09-5.28-2.09,5.28Z"/>
    <path class="cls-2" d="m90.51,76.53v-12.22h6.84v1.3h-5.1v10.93h-1.74Z"/>
    <path class="cls-2" d="m99.12,76.53v-12.22h6.83v1.3h-5.09v3.92h4.27v1.28h-4.27v4.43h5.45v1.3h-7.19Z"/>
    <path class="cls-2" d="m113.29,76.83c-1.73,0-3.12-.58-4.16-1.75-1.04-1.16-1.56-2.72-1.56-4.67s.52-3.51,1.56-4.67,2.42-1.75,4.16-1.75,3.12.58,4.16,1.75c1.04,1.16,1.56,2.72,1.56,4.67s-.52,3.51-1.56,4.67c-1.04,1.17-2.43,1.75-4.16,1.75Zm0-1.29c1.22,0,2.17-.45,2.85-1.36.68-.91,1.02-2.16,1.02-3.78s-.34-2.85-1.02-3.75c-.68-.9-1.63-1.35-2.85-1.35s-2.17.45-2.85,1.35-1.02,2.15-1.02,3.75.34,2.87,1.02,3.78,1.63,1.36,2.85,1.36Z"/>
    <path class="cls-2" d="m120.46,79.18v-4.18h.97c.91-1.45,1.54-2.89,1.9-4.31.36-1.42.54-3.17.54-5.26v-1.12h6.67v10.69h1.68v4.18h-1.68v-2.65h-8.4v2.65h-1.68Zm8.35-4.18v-9.42h-3.2v.2c0,3.61-.73,6.68-2.19,9.22h5.39Z"/>
    <path class="cls-2" d="m134.32,76.53v-12.22h6.83v1.3h-5.09v3.92h4.27v1.28h-4.27v4.43h5.45v1.3h-7.19Z"/>
    <path class="cls-2" d="m142.44,76.32v-1.53c1.28.47,2.39.71,3.31.71.84,0,1.5-.21,2-.62.5-.42.75-.97.75-1.67,0-.84-.33-1.47-.98-1.91s-1.61-.66-2.87-.66h-.26v-1.22h.24c1.13,0,2.01-.21,2.63-.61.62-.41.93-.99.93-1.74,0-1.19-.84-1.78-2.52-1.78-.88,0-1.89.21-3.04.64v-1.4c1.05-.34,2.09-.51,3.13-.51,1.34,0,2.37.25,3.1.76.73.51,1.1,1.23,1.1,2.17,0,1.45-.89,2.43-2.66,2.96.95.15,1.69.51,2.23,1.07.53.56.8,1.26.8,2.09,0,1.07-.43,1.97-1.3,2.7-.87.72-1.95,1.09-3.25,1.09-1.14-.03-2.26-.2-3.34-.54Z"/>
    <path class="cls-2" d="m152.62,76.53v-12.22h1.73v9.72l5.91-9.72h1.73v12.22h-1.73v-9.72l-5.9,9.72h-1.74Z"/>
    <path class="cls-2" d="m170.91,76.53v-4.92c-.89.5-1.91.74-3.06.74s-2.08-.33-2.72-.99c-.34-.35-.57-.73-.7-1.16-.12-.42-.19-1.04-.19-1.85v-4.04h1.73v3.99c0,.98.17,1.66.51,2.04.34.39.94.58,1.81.58.96,0,1.83-.25,2.62-.73v-5.88h1.73v12.22h-1.73Z"/>
    <path class="cls-2" d="m175.8,76.53v-12.22h6.83v1.3h-5.09v3.92h4.27v1.28h-4.27v4.43h5.45v1.3h-7.19Z"/>
    <path class="cls-2" d="m194.14,75.9c-1.21.62-2.52.93-3.95.93-1.9,0-3.37-.56-4.4-1.67-1.03-1.11-1.55-2.69-1.55-4.74s.53-3.62,1.58-4.74c1.05-1.12,2.54-1.68,4.46-1.68,1.09,0,2.37.18,3.84.54v1.63c-1.67-.58-2.96-.87-3.87-.87-1.33,0-2.35.45-3.08,1.35-.73.9-1.09,2.16-1.09,3.8s.39,2.79,1.16,3.69c.78.9,1.84,1.35,3.19,1.35,1.15,0,2.39-.36,3.71-1.07v1.48Z"/>
    <path class="cls-2" d="m198.4,70.88v5.65h-1.74v-12.22h1.74v5.28h.08c.46,0,.8-.11,1.03-.33s.63-.82,1.21-1.8l.52-.89.43-.76c.32-.56.65-.95.98-1.17.33-.22.74-.33,1.24-.33h.21v1.28c-.06,0-.11,0-.13,0-.43,0-.88.42-1.34,1.25l-.32.59-.25.45c-.42.75-.74,1.26-.97,1.54s-.51.53-.86.74c.6.2,1.06.48,1.39.85.33.37.75,1.06,1.25,2.08l.42.85c.05.11.2.43.46.97.29.62.58,1.17.85,1.64h-1.84l-.13-.26-.53-1.08-.69-1.42c-.71-1.44-1.43-2.4-2.16-2.89h-.85Z"/>
    <path class="cls-2" d="m211.68,76.83c-1.73,0-3.12-.58-4.16-1.75-1.04-1.16-1.56-2.72-1.56-4.67s.52-3.51,1.56-4.67,2.42-1.75,4.16-1.75,3.12.58,4.16,1.75,1.56,2.72,1.56,4.67-.52,3.51-1.56,4.67-2.42,1.75-4.16,1.75Zm0-1.29c1.22,0,2.17-.45,2.85-1.36s1.03-2.16,1.03-3.78-.34-2.85-1.03-3.75-1.63-1.35-2.85-1.35-2.17.45-2.85,1.35-1.02,2.15-1.02,3.75.34,2.87,1.02,3.78,1.64,1.36,2.85,1.36Z"/>
    <path class="cls-2" d="m219.83,76.53v-12.22h6.84v1.3h-5.1v10.93h-1.74Z"/>
    <path class="cls-2" d="m233.43,76.83c-1.73,0-3.12-.58-4.16-1.75-1.04-1.16-1.56-2.72-1.56-4.67s.52-3.51,1.56-4.67,2.42-1.75,4.16-1.75,3.12.58,4.16,1.75,1.56,2.72,1.56,4.67-.52,3.51-1.56,4.67-2.42,1.75-4.16,1.75Zm0-1.29c1.22,0,2.17-.45,2.85-1.36s1.03-2.16,1.03-3.78-.34-2.85-1.03-3.75-1.63-1.35-2.85-1.35-2.17.45-2.85,1.35-1.02,2.15-1.02,3.75.34,2.87,1.02,3.78,1.64,1.36,2.85,1.36Z"/>
    <path class="cls-2" d="m251.92,76.83c-1.73,0-3.12-.58-4.16-1.75-1.04-1.16-1.56-2.72-1.56-4.67s.52-3.51,1.56-4.67,2.42-1.75,4.16-1.75,3.12.58,4.16,1.75,1.56,2.72,1.56,4.67-.52,3.51-1.56,4.67-2.42,1.75-4.16,1.75Zm0-1.29c1.22,0,2.17-.45,2.85-1.36s1.03-2.16,1.03-3.78-.34-2.85-1.03-3.75-1.63-1.35-2.85-1.35-2.17.45-2.85,1.35-1.02,2.15-1.02,3.75.34,2.87,1.02,3.78,1.64,1.36,2.85,1.36Z"/>
    <path class="cls-2" d="m260.07,76.53v-12.22h6.83v1.3h-5.09v3.95h.93c.97,0,1.67.04,2.11.12.44.08.86.25,1.26.5.94.59,1.4,1.47,1.4,2.63,0,1.36-.53,2.37-1.59,3.04-.73.46-1.93.68-3.62.68h-2.23Zm1.73-1.27h.61c1.19,0,2.02-.17,2.48-.51.58-.43.88-1.04.88-1.83,0-.74-.25-1.27-.74-1.6-.49-.33-1.29-.5-2.38-.5h-.85v4.44Z"/>
    <path class="cls-2" d="m274.89,76.83c-1.73,0-3.12-.58-4.16-1.75-1.04-1.16-1.56-2.72-1.56-4.67s.52-3.51,1.56-4.67,2.42-1.75,4.16-1.75,3.12.58,4.16,1.75,1.56,2.72,1.56,4.67-.52,3.51-1.56,4.67-2.42,1.75-4.16,1.75Zm0-1.29c1.22,0,2.17-.45,2.85-1.36s1.03-2.16,1.03-3.78-.34-2.85-1.03-3.75-1.63-1.35-2.85-1.35-2.17.45-2.85,1.35c-.68.9-1.02,2.15-1.02,3.75s.34,2.87,1.02,3.78c.69.9,1.64,1.36,2.85,1.36Z"/>
    <path class="cls-2" d="m283.04,76.53v-12.22h3.33c.96,0,1.7.08,2.22.24s.95.43,1.28.83c.44.52.65,1.24.65,2.14,0,1.3-.44,2.32-1.32,3.06-.88.74-2.1,1.11-3.67,1.11h-.77v4.86h-1.72v-.02Zm1.71-6.17h.7c1.03,0,1.83-.24,2.39-.71.56-.47.84-1.15.84-2.01,0-.73-.22-1.25-.66-1.56s-1.18-.47-2.2-.47h-1.07v4.75Z"/>
    <path class="cls-2" d="m295.63,72.65l-4.21-8.34h1.94l3.27,6.48,3.54-6.48h1.63l-5.02,9.18c-.67,1.24-1.3,2.06-1.89,2.45-.59.39-1.47.59-2.63.59h-.32v-1.43h.34c.82,0,1.42-.13,1.83-.38.4-.26.83-.78,1.26-1.58l.26-.49Z"/>
    <path class="cls-2" d="m302.27,79.18v-4.18h.97c.91-1.45,1.54-2.89,1.9-4.31.36-1.42.54-3.17.54-5.26v-1.12h6.67v10.69h1.68v4.18h-1.68v-2.65h-8.4v2.65h-1.68Zm8.35-4.18v-9.42h-3.2v.2c0,3.61-.73,6.68-2.19,9.22h5.39Z"/>
    <path class="cls-2" d="m321.12,76.83c-1.73,0-3.12-.58-4.16-1.75-1.04-1.16-1.56-2.72-1.56-4.67s.52-3.51,1.56-4.67,2.42-1.75,4.16-1.75,3.12.58,4.16,1.75,1.56,2.72,1.56,4.67-.52,3.51-1.56,4.67-2.42,1.75-4.16,1.75Zm0-1.29c1.22,0,2.17-.45,2.85-1.36s1.03-2.16,1.03-3.78-.34-2.85-1.03-3.75-1.63-1.35-2.85-1.35-2.17.45-2.85,1.35-1.02,2.15-1.02,3.75.34,2.87,1.02,3.78,1.64,1.36,2.85,1.36Z"/>
    <path class="cls-2" d="m329.26,76.53v-12.22h3.17c1.22,0,2.16.23,2.81.69s.98,1.13.98,2c0,.7-.22,1.33-.65,1.88-.44.55-1.05.98-1.86,1.28,2,.61,3,1.72,3,3.31,0,.72-.22,1.35-.66,1.91-.33.42-.74.72-1.21.89s-1.13.26-1.97.26h-3.61Zm1.72-6.86h.55c.93,0,1.65-.2,2.15-.59.51-.4.76-.96.76-1.69,0-1.19-.93-1.78-2.79-1.78h-.68v4.06h.01Zm0,5.56h.35c1.27,0,2.09-.08,2.47-.24.71-.3,1.07-.86,1.07-1.68,0-.73-.32-1.33-.97-1.81-.65-.48-1.46-.72-2.43-.72h-.49v4.45h0Z"/>
    <path class="cls-2" d="m337.55,76.53l4.85-12.22h1.72l4.77,12.22h-1.87l-1.33-3.38h-5.18l-1.35,3.38h-1.61Zm3.46-4.68h4.18l-2.09-5.28-2.09,5.28Z"/>
    <path class="cls-2" d="m350.66,76.53v-12.22h1.73v5.15h5.81v-5.15h1.73v12.22h-1.73v-5.77h-5.81v5.77h-1.73Z"/>
    <path class="cls-2" d="m363.09,76.53v-12.22h1.73v9.72l5.9-9.72h1.73v12.22h-1.73v-9.72l-5.9,9.72h-1.73Z"/>
    <path class="cls-2" d="m381.21,71.33h-1.1c-.78.78-1.71,2.06-2.8,3.86-.15.25-.35.58-.6.99l-.22.35h-2.25c.47-.54.92-1.16,1.36-1.86l.36-.55.22-.34.49-.74c.63-.96,1.26-1.64,1.88-2.02-.85-.17-1.55-.56-2.08-1.18-.54-.62-.81-1.33-.81-2.14,0-1.06.39-1.94,1.18-2.62.34-.3.75-.5,1.22-.61s1.18-.16,2.11-.16h2.77v12.22h-1.73v-5.2h0Zm0-5.75h-1.02c-.91,0-1.55.17-1.94.5-.5.42-.74.98-.74,1.66,0,.77.26,1.35.79,1.74.52.39,1.3.59,2.33.59h.59v-4.49h-.01Z"/>
  </g>
</svg>